<?xml version="1.0" encoding="UTF-8"?>
<svg width="5px" height="5px" viewBox="0 0 5 5" version="1.1" xmlns="http://www.w3.org/2000/svg" xmlns:xlink="http://www.w3.org/1999/xlink">
    <!-- Generator: Sketch 39.1 (31720) - http://www.bohemiancoding.com/sketch -->
    <title>Artboard</title>
    <desc>Created with Sketch.</desc>
    <defs></defs>
    <g id="Page-1" stroke="none" stroke-width="1" fill="none" fill-rule="evenodd">
        <g id="Artboard" fill="#1ECAD6">
            <circle id="Oval" cx="2.5" cy="2.5" r="0.7"></circle>
            <path d="M0.7,5 C0.7,4.6 0.4,4.3 0,4.3 L0,5 L0.7,5 L0.7,5 Z M4.3,0 C4.3,0.4 4.6,0.7 5,0.7 L5,0 L4.3,0 L4.3,0 Z M0.7,0 L0,0 L0,0.7 C0.4,0.7 0.7,0.4 0.7,0 L0.7,0 Z M4.3,5 L5,5 L5,4.3 C4.6,4.3 4.3,4.6 4.3,5 L4.3,5 Z" id="Shape"></path>
        </g>
    </g>
</svg>